<?xml version="1.0" encoding="iso-8859-1"?>
<!-- Generator: Adobe Illustrator 19.0.0, SVG Export Plug-In . SVG Version: 6.00 Build 0)  -->
<svg version="1.1" id="Capa_1" xmlns="http://www.w3.org/2000/svg" xmlns:xlink="http://www.w3.org/1999/xlink" x="0px" y="0px"
	 viewBox="0 0 512 512" style="enable-background:new 0 0 512 512;" xml:space="preserve">
<circle style="fill:#005ED1;" cx="256" cy="256" r="256"/>
<path style="fill:#053D8A;" d="M512,256c0-15.389-1.36-30.46-3.963-45.101l-59.629-59.629
	c-13.896-15.493-33.659-24.614-56.304-25.543c-44.891-1.842-75.321,38.99-85.466,54.954c-4.893-0.701-9.889-1.072-14.969-1.072
	h-71.338c-3.488,0-6.934,0.187-10.338,0.524l-22.56-22.53c-15.36-16.291-38.401-33.071-67.537-31.876
	c-48.995,2.01-84.52,42.342-76.254,102.681l70.957,70.882c0.437,28.416,12.234,54.203,31.02,73.005l138.275,138.186
	C412.155,496.581,512,387.958,512,256z"/>
<path style="fill:#C6C4CA;" d="M392.104,125.727c-44.891-1.842-75.321,38.99-85.466,54.954c-4.893-0.701-9.889-1.072-14.969-1.072
	h-71.338c-5.079,0-10.075,0.371-14.969,1.072c-10.145-15.964-40.575-56.796-85.466-54.954c-48.995,2.01-84.52,42.342-76.254,102.681
	L84,224.106l2.48,18.732l32.619-6.508l5.144,5.018c-6.192,13.417-9.656,28.326-9.656,44.006v12.3
	c0,58.16,47.585,105.745,105.745,105.745h71.338c58.16,0,105.745-47.585,105.745-105.745v-12.3c0-15.68-3.464-30.589-9.656-44.006
	l5.144-5.018l32.619,6.508l2.48-18.732l40.358,4.302C476.625,168.069,441.099,127.737,392.104,125.727z"/>
<path style="fill:#949498;" d="M468.36,228.41l-40.36-4.3l-2.48,18.73l-32.62-6.51l-5.14,5.02c6.19,13.42,9.65,28.32,9.65,44v12.3
	c0,58.16-47.58,105.75-105.74,105.75H256V179.61h35.67c5.08,0,10.07,0.37,14.97,1.07c10.14-15.96,40.57-56.79,85.46-54.95
	C441.1,127.74,476.62,168.07,468.36,228.41z"/>
<path style="fill:#77767E;" d="M181.94,186.86c-19.63,7.71-36.44,21.14-48.35,38.21l-12.09-10.99l-20.68,1.57l-0.61-10.83l-25.4-0.2
	c-2.12-34.91,22.07-55.55,52.75-53.48C155.9,153.05,175.55,177.68,181.94,186.86z"/>
<g>
	<path style="fill:#56545B;" d="M437.19,204.62l-25.4,0.2l-0.61,10.83l-20.68-1.57l-12.09,10.99
		c-11.91-17.07-28.72-30.5-48.35-38.21c6.39-9.18,26.04-33.81,54.38-35.72C415.12,149.07,439.31,169.71,437.19,204.62z"/>
	<rect x="218.91" y="366.27" style="fill:#56545B;" width="74.17" height="12.07"/>
</g>
<rect x="256" y="366.27" style="fill:#29292B;" width="37.09" height="12.07"/>
<circle style="fill:#FFFFFF;" cx="201.66" cy="253.43" r="25.534"/>
<circle style="fill:#56545B;" cx="201.66" cy="254.41" r="13.586"/>
<circle style="fill:#FDF3CA;" cx="310.34" cy="253.43" r="25.534"/>
<circle style="fill:#29292B;" cx="310.34" cy="254.41" r="13.586"/>
<path style="fill:#56545B;" d="M256,271.494c-27.344,0-33.019,17.086-28.204,41.966c5.496,28.396,19.43,39.775,28.204,39.775
	s22.708-11.379,28.204-39.775C289.019,288.58,283.344,271.494,256,271.494z"/>
<path style="fill:#29292B;" d="M256,271.494c27.344,0,33.019,17.086,28.204,41.966c-5.496,28.396-19.43,39.775-28.204,39.775
	V271.494z"/>
<g>
</g>
<g>
</g>
<g>
</g>
<g>
</g>
<g>
</g>
<g>
</g>
<g>
</g>
<g>
</g>
<g>
</g>
<g>
</g>
<g>
</g>
<g>
</g>
<g>
</g>
<g>
</g>
<g>
</g>
</svg>
